<svg width="20" height="20" viewBox="0 0 20 20" fill="none" xmlns="http://www.w3.org/2000/svg">
<circle cx="11.8255" cy="5.3055" r="1.43489" fill="white" fill-opacity="0.5"/>
<circle cx="7.31477" cy="6.5345" r="1.43489" fill="white" fill-opacity="0.5"/>
<circle cx="6.49592" cy="11.0448" r="1.43489" fill="white" fill-opacity="0.5"/>
<path d="M10.7997 14.7344L9.56982 13.7095C8.95487 13.9145 7.72497 13.9145 6.90503 15.7593C6.23383 17.2695 5.26516 16.9892 4.24023 17.1942C8.95487 20.269 10.7997 16.5793 10.7997 14.7344Z" fill="white"/>
<path d="M11.6205 13.7095C11.6205 13.7095 11.2109 13.5045 10.3906 12.8895C10.5956 11.0447 10.8689 10.8397 11.4155 10.0197C11.7842 9.46674 16.96 5.10117 17.9991 4.22719C18.1176 4.12755 18.2649 4.0752 18.4197 4.0752C18.6438 4.0752 18.8436 4.22111 18.9145 4.43374C18.9684 4.59544 18.9503 4.7739 18.8631 4.92038C17.5171 7.18254 14.9191 11.4824 14.2853 12.2746C13.6294 13.0945 12.2355 13.5728 11.6205 13.7095Z" fill="white"/>
<path fill-rule="evenodd" clip-rule="evenodd" d="M13.9962 13.063C13.7157 13.2847 13.4347 13.5225 13.1606 13.7805C12.3862 14.5096 12.3729 15.5516 12.5176 16.2769C12.5947 16.6631 12.5521 16.894 12.4947 17.0305C12.439 17.1629 12.3373 17.2836 12.1521 17.3948C11.7408 17.6416 11.0479 17.7626 10.1976 17.7637C9.88726 18.07 9.5379 18.3432 9.14779 18.5687C9.48811 18.6086 9.83437 18.6291 10.1854 18.6291C11.9675 18.6291 13.7752 18.1567 13.3663 16.1076C13.2448 15.4984 13.3016 14.8364 13.7538 14.4106C14.4533 13.7521 15.215 13.2238 15.9294 12.7284C17.4722 11.6585 18.7948 10.7413 18.7948 8.99487C18.7948 8.0552 18.7859 7.70272 18.563 7.05127C18.3425 7.41104 18.1242 7.76554 17.9112 8.1097C17.9268 8.31905 17.9294 8.58204 17.9294 8.99487C17.9294 9.87172 17.48 10.4827 16.5677 11.2007C16.2288 11.4675 15.8622 11.7218 15.4562 12.0033L15.4561 12.0034L15.4556 12.0037C15.3748 12.0598 15.2923 12.117 15.2082 12.1755C14.8712 12.5203 14.444 12.8161 13.9962 13.063ZM16.1155 4.52114C14.6594 2.89122 12.5416 1.86588 10.1854 1.86588C5.79534 1.86588 2.23649 5.42474 2.23649 9.81481C2.23649 12.2012 3.28806 14.3419 4.9531 15.799C4.75823 16.0539 4.55339 16.2539 4.33997 16.4121C2.51886 14.7974 1.37109 12.4401 1.37109 9.81481C1.37109 4.94679 5.3174 1.00049 10.1854 1.00049C12.8049 1.00049 15.1576 2.14319 16.772 3.9573C16.5544 4.14378 16.335 4.33224 16.1155 4.52114Z" fill="white"/>
</svg>
