<svg width="24" height="24" viewBox="0 0 24 24" fill="none" xmlns="http://www.w3.org/2000/svg">
<path d="M12.261 10.3619C12.261 10.3619 14.3047 8.32012 14.3771 8.24845C14.5697 8.05641 14.7163 7.86184 15.0773 7.98215C15.4511 8.10762 15.8838 7.80486 16.0681 7.41954C16.23 7.081 16.1564 6.70525 15.8582 6.40506C14.3374 4.87787 12.8159 3.35137 11.2933 1.82672C10.9713 1.50476 10.5623 1.44652 10.2192 1.66098C9.77311 1.9394 9.58687 2.37013 9.75713 2.81053C9.8173 2.9654 9.75264 3.02879 9.66622 3.11579C8.26385 4.52207 6.86151 5.92955 5.45976 7.33638C4.67122 8.12812 3.88011 8.91666 3.09408 9.71161C2.98275 9.82684 2.89186 9.87037 2.7229 9.80893C2.30683 9.65533 1.87162 9.86272 1.6092 10.3043C1.41459 10.632 1.47348 11.043 1.77175 11.3413C3.30279 12.8812 4.83634 14.4199 6.36994 15.9561C6.67205 16.2569 7.1047 16.3196 7.42474 16.1161C7.87474 15.8319 8.03921 15.4184 7.90356 14.964C7.87987 14.8859 7.90162 14.7541 7.95535 14.7003C8.52372 14.1204 10.2205 12.4178 10.2205 12.4178L21.2347 22.5077L22.47 21.2596L12.261 10.3619Z" fill="black"/>
<path d="M3.07227 19.886H10.9374V22.5077H3.07227V19.886Z" fill="black"/>
</svg>
