<svg width="16" height="16" viewBox="0 0 16 16" fill="none" xmlns="http://www.w3.org/2000/svg">
<g opacity="0.3">
<path d="M14.4248 4.525C14.4248 10.0625 10.7873 14.05 5.4373 14.225C3.1748 14.4 1.6248 13.7125 0.237305 12.675C1.7873 12.85 3.8748 12.3375 4.8998 11.2875C3.3498 11.2875 2.4748 10.4125 1.9623 9.225H3.3498C1.9623 8.7 0.912305 7.6625 0.912305 5.9375C1.2498 6.1125 1.5998 6.275 2.2998 6.275C1.0873 5.5875 0.399805 3.3375 1.2623 1.95C2.8123 3.675 4.7123 5.2375 7.8498 5.4C6.9748 1.95 11.4873 0.200004 13.3873 2.4625C14.2623 2.2875 14.7748 1.95 15.4498 1.5875C15.2748 2.4625 14.7623 2.975 14.0623 3.3125C14.7498 3.3125 15.2748 3.1375 15.7873 2.8C15.6248 3.4875 14.9373 4.1875 14.4248 4.525Z" fill="#343437"/>
</g>
</svg>
