<svg width="16" height="16" viewBox="0 0 16 16" fill="none" xmlns="http://www.w3.org/2000/svg">
<path d="M14.2698 4.87275H1.73059C1.44171 4.87275 1.20605 5.1065 1.20605 5.39539V14.2782C1.20605 14.5651 1.44171 14.8008 1.73059 14.8008H14.2698C14.5587 14.8008 14.7944 14.567 14.7944 14.2782V5.39539C14.7944 5.1084 14.5587 4.87275 14.2698 4.87275ZM3.8192 2.25962H12.1812C12.3238 2.25962 12.4416 2.14179 12.4416 1.99545V1.47853C12.4416 1.33029 12.3257 1.21436 12.1812 1.21436H3.8192C3.67666 1.21436 3.55884 1.33218 3.55884 1.47853V1.99545C3.55693 2.14368 3.67476 2.25962 3.8192 2.25962ZM2.51357 4.08786H13.4869C13.6313 4.08786 13.7491 3.97004 13.7491 3.8237V3.30678C13.7491 3.15853 13.6313 3.04261 13.4869 3.04261H2.51357C2.36913 3.04261 2.2513 3.16043 2.2513 3.30678V3.8237C2.2513 3.97193 2.36913 4.08786 2.51357 4.08786Z" fill="white"/>
<path d="M11.223 9.89199C11.1413 9.81218 11.0463 9.75137 10.936 9.70765C10.8277 9.66395 10.7118 9.64113 10.5901 9.64113H10.44L9.84327 8.59018C9.93639 8.50846 10.0086 8.41343 10.0637 8.30512C10.1188 8.19488 10.1454 8.07705 10.1454 7.94782C10.1454 7.83001 10.1226 7.71977 10.077 7.61334C10.0314 7.5088 9.9668 7.41568 9.88508 7.33777C9.80336 7.25987 9.70833 7.19715 9.60191 7.15343C9.49548 7.10973 9.37956 7.08691 9.25222 7.08691C9.12678 7.08691 9.01086 7.10973 8.90253 7.15343C8.79611 7.19713 8.70298 7.25985 8.62316 7.33777C8.54334 7.4176 8.48063 7.50882 8.43503 7.61334C8.38941 7.71787 8.36659 7.82999 8.36659 7.94782C8.36659 8.07705 8.3932 8.19679 8.44452 8.30512C8.49773 8.41343 8.56995 8.51037 8.66117 8.59018L7.57981 10.9259C7.538 10.9182 7.5038 10.9144 7.47908 10.9144C7.41256 10.9144 7.34795 10.9221 7.28714 10.9391C7.22633 10.9563 7.16931 10.9753 7.1142 11L6.03853 9.68865C6.08122 9.61901 6.11506 9.54432 6.13927 9.4663C6.16435 9.387 6.17717 9.30432 6.17727 9.22113C6.17727 9.1033 6.15445 8.99307 6.10886 8.88665C6.06323 8.78212 5.99863 8.6909 5.91691 8.61299C5.83519 8.53696 5.74016 8.47615 5.63373 8.43054C5.52731 8.38684 5.40948 8.36402 5.28405 8.36402C5.16242 8.36402 5.0465 8.38684 4.93817 8.43054C4.82984 8.47426 4.73481 8.53507 4.655 8.61299C4.57517 8.68901 4.51247 8.78023 4.46684 8.88665C4.42123 8.99118 4.39844 9.1033 4.39844 9.22113C4.39844 9.33896 4.42125 9.44919 4.46684 9.55182C4.51247 9.65444 4.57517 9.74566 4.655 9.82168C4.73483 9.89769 4.82984 9.95851 4.93817 10.0041C5.0465 10.0478 5.16242 10.0706 5.28405 10.0706C5.30875 10.0706 5.33156 10.0687 5.35247 10.0668C5.37338 10.0649 5.39428 10.063 5.41519 10.063L6.64097 11.496C6.62008 11.5359 6.60677 11.5815 6.59917 11.629C6.59347 11.6784 6.58967 11.7279 6.58967 11.7811C6.58967 11.8989 6.61248 12.0091 6.65808 12.1155C6.7037 12.2201 6.76641 12.3113 6.84623 12.3892C6.92605 12.4652 7.02108 12.526 7.12941 12.5716C7.23773 12.6154 7.35366 12.6382 7.47528 12.6382C7.59692 12.6382 7.71284 12.6154 7.82117 12.5716C7.9295 12.5279 8.02452 12.4671 8.10434 12.3892C8.18416 12.3132 8.24688 12.222 8.29248 12.1155C8.33811 12.011 8.36091 11.8989 8.36091 11.7811C8.36091 11.6841 8.3457 11.591 8.31339 11.5055C8.28108 11.4181 8.23927 11.3364 8.18417 11.2603L9.24652 8.96648L9.85656 10.0155C9.81095 10.0839 9.77294 10.16 9.74253 10.2436C9.71342 10.3286 9.69865 10.4179 9.69883 10.5077C9.69883 10.6256 9.72164 10.7358 9.76725 10.8422C9.81286 10.9468 9.87556 11.038 9.95538 11.1159C10.0352 11.1919 10.1302 11.2527 10.2386 11.2983C10.3469 11.3421 10.4628 11.3649 10.5844 11.3649C10.7061 11.3649 10.822 11.342 10.9303 11.2983C11.0387 11.2546 11.1356 11.1938 11.2173 11.1159C11.299 11.0399 11.3636 10.9486 11.4092 10.8422C11.4549 10.7377 11.4777 10.6256 11.4777 10.5077C11.4777 10.3861 11.4548 10.274 11.4092 10.1676C11.3693 10.063 11.3047 9.96991 11.223 9.89199Z" fill="white"/>
</svg>
