<svg width="20" height="20" viewBox="0 0 20 20" fill="none" xmlns="http://www.w3.org/2000/svg">
<path d="M1.69541 12.3004C1.69541 7.81658 5.33025 4.18174 9.81406 4.18174C14.2979 4.18174 17.9327 7.81658 17.9327 12.3004C17.9327 13.1459 17.8036 13.9604 17.5643 14.7259C17.4321 15.1488 17.0091 15.4376 16.5067 15.4423L3.18048 15.5652C2.6782 15.5698 2.24993 15.2889 2.10986 14.8685C1.84111 14.0619 1.69541 13.1986 1.69541 12.3004Z" stroke="white" stroke-width="0.8"/>
<path d="M13.4995 5L18.3315 3.98975L17.4995 9.5" stroke="white" stroke-width="0.8"/>
<path d="M5.65869 5.23612L1.29548 4.19727L2.49951 9" stroke="white" stroke-width="0.8"/>
<circle cx="6.07356" cy="10.6385" r="1.46995" stroke="white" stroke-width="0.8"/>
<circle cx="6.07351" cy="10.2229" r="0.623316" fill="white"/>
<circle cx="13.138" cy="10.6385" r="1.46995" stroke="white" stroke-width="0.8"/>
<circle cx="13.1375" cy="10.2229" r="0.623316" fill="white"/>
<rect x="6.69629" y="10.8457" width="1.1" height="0.415544" rx="0.207772" fill="white"/>
<rect x="14.1758" y="10.8457" width="0.415544" height="0.415544" fill="white"/>
<circle cx="3.99491" cy="13.5472" r="1.03886" fill="white" fill-opacity="0.5"/>
<circle cx="15.2146" cy="13.5472" r="1.03886" fill="white" fill-opacity="0.5"/>
<path d="M8.98242 13.3394C8.98242 13.3394 9.19019 14 9.9174 14C10.6446 14 10.8524 13.3394 10.8524 13.3394" stroke="white" stroke-width="0.5" stroke-linecap="round"/>
<path d="M9.83525 5.40584C9.91146 5.25141 10.1317 5.25141 10.2079 5.40584L10.5838 6.16763C10.6141 6.22895 10.6726 6.27146 10.7403 6.28129L11.581 6.40345C11.7514 6.42821 11.8194 6.63764 11.6961 6.75785L11.0878 7.35082C11.0388 7.39855 11.0165 7.46732 11.028 7.53472L11.1717 8.37202C11.2008 8.54175 11.0226 8.67118 10.8702 8.59104L10.1183 8.19573C10.0577 8.16391 9.98541 8.16391 9.92488 8.19573L9.17295 8.59104C9.02052 8.67118 8.84237 8.54175 8.87148 8.37201L9.01509 7.53472C9.02665 7.46732 9.0043 7.39855 8.95533 7.35082L8.347 6.75785C8.22369 6.63764 8.29174 6.42821 8.46215 6.40345L9.30284 6.28129C9.37052 6.27146 9.42902 6.22895 9.45928 6.16763L9.83525 5.40584Z" fill="white" fill-opacity="0.5"/>
</svg>
