<svg width="20" height="20" viewBox="0 0 20 20" fill="none" xmlns="http://www.w3.org/2000/svg">
<rect x="2.34619" y="7.57471" width="8.45997" height="2.01428" rx="1.00714" fill="white" fill-opacity="0.5"/>
<rect x="11.2085" y="7.57471" width="2.01428" height="2.01428" rx="1.00714" fill="white" fill-opacity="0.5"/>
<rect x="13.6255" y="7.57471" width="3.6257" height="2.01428" rx="1.00714" fill="white" fill-opacity="0.5"/>
<path d="M13.2227 15.0277V9.79053L18.0569 12.4091L16.4455 13.2148L17.0498 15.2291L16.0426 15.8334L14.6327 14.2219L13.2227 15.0277Z" fill="white"/>
<path fill-rule="evenodd" clip-rule="evenodd" d="M1.94248 5.15156H18.0567C18.5048 5.15156 18.8681 5.51485 18.8681 5.96299V11.2001C18.8681 11.4334 18.7697 11.6437 18.612 11.7917L19.3339 12.1828C19.5435 11.9108 19.6681 11.57 19.6681 11.2001V5.96299C19.6681 5.07302 18.9467 4.35156 18.0567 4.35156H1.94248C1.05251 4.35156 0.331055 5.07302 0.331055 5.96299V11.2001C0.331055 12.0901 1.05251 12.8115 1.94248 12.8115H12.2797V12.0115H1.94248C1.49434 12.0115 1.13105 11.6482 1.13105 11.2001V5.96299C1.13105 5.51485 1.49434 5.15156 1.94248 5.15156Z" fill="white"/>
</svg>
