<svg width="28" height="28" viewBox="0 0 28 28" fill="none" xmlns="http://www.w3.org/2000/svg">
<g clip-path="url(#clip0)">
<path d="M0 14C0 17.713 1.475 21.274 4.10051 23.8995C6.72601 26.525 10.287 28 14 28C17.713 28 21.274 26.525 23.8995 23.8995C26.525 21.274 28 17.713 28 14C28 10.287 26.525 6.72601 23.8995 4.10051C21.274 1.475 17.713 0 14 0C10.287 0 6.72601 1.475 4.10051 4.10051C1.475 6.72601 0 10.287 0 14H0Z" fill="#627EEA"/>
<path d="M14.4355 3.5V11.2609L20.9955 14.1923L14.4355 3.5Z" fill="white" fill-opacity="0.602"/>
<path d="M14.4361 3.5L7.875 14.1923L14.4361 11.2615V3.5Z" fill="white"/>
<path d="M14.4355 19.2206V24.4943L20.9997 15.4126L14.4355 19.2206Z" fill="white" fill-opacity="0.602"/>
<path d="M14.4361 24.4943V19.22L7.875 15.4126L14.4361 24.4943Z" fill="white"/>
<path d="M14.4355 18.0019L20.9955 14.1927L14.4355 11.2637V18.0019Z" fill="white" fill-opacity="0.2"/>
<path d="M7.875 14.1927L14.4355 18.0019V11.2637L7.875 14.1927Z" fill="white" fill-opacity="0.602"/>
</g>
<defs>
<clipPath id="clip0">
<rect width="28" height="28" fill="white"/>
</clipPath>
</defs>
</svg>
