<svg width="38" height="38" viewBox="0 0 38 38" fill="none" xmlns="http://www.w3.org/2000/svg">
<path d="M29.0605 8.90467C26.2897 6.14808 22.9045 4.75 19 4.75C15.0591 4.75 11.6644 6.14967 8.90942 8.90625C6.14967 11.6628 4.75 15.0607 4.75 19C4.75 22.9029 6.14808 26.2881 8.90467 29.0605C11.6613 31.8408 15.0575 33.25 19 33.25C22.9061 33.25 26.2913 31.8408 29.0637 29.0653C31.8424 26.2897 33.25 22.9029 33.25 19C33.25 15.0607 31.8408 11.6628 29.0605 8.90467ZM26.8248 26.8264C25.0246 28.6298 22.9678 29.6574 20.5833 29.9693V22.1667H23.75V19H20.5833V16.7833C20.5833 16.6584 20.608 16.5348 20.6558 16.4194C20.7036 16.3041 20.7738 16.1993 20.8621 16.111C20.9505 16.0228 21.0554 15.9528 21.1709 15.9052C21.2863 15.8575 21.41 15.8331 21.5349 15.8333H23.75V12.6667H21.5381C20.3632 12.6667 19.3832 13.0989 18.5978 13.9682C17.8125 14.8342 17.4167 15.8919 17.4167 17.1475V19H14.25V22.1667H17.4167V29.9725C15.0068 29.6638 12.9422 28.6346 11.1514 26.8312C8.97433 24.6398 7.91667 22.078 7.91667 19C7.91667 15.8872 8.97275 13.319 11.1498 11.1467C13.319 8.97275 15.8872 7.91667 19 7.91667C22.0796 7.91667 24.6398 8.97433 26.8296 11.1514C29.0193 13.3238 30.0833 15.8919 30.0833 19C30.0833 22.0732 29.0177 24.6351 26.8248 26.8264Z" fill="white"/>
</svg>
