<svg width="12" height="12" viewBox="0 0 12 12" fill="none" xmlns="http://www.w3.org/2000/svg">
<g clip-path="url(#clip0)">
<path d="M5.18421 0.108903C4.89023 -0.131079 4.44626 0.0489076 4.40427 0.420879C4.31427 1.20682 4.10429 2.41273 3.63033 3.28866C2.88038 4.68056 1.50049 5.30451 1.50049 7.55434C1.50049 9.80417 3.00037 12 6.00015 12C8.99992 12 10.4998 9.81017 10.4998 7.55434C10.4998 5.95846 9.74386 4.74055 9.04192 3.89462C8.77194 3.57064 8.24998 3.73263 8.19598 4.1466C8.10599 4.90254 7.85401 5.73648 7.17006 5.98246C6.99007 6.04845 6.81009 5.87446 6.85808 5.68848C7.69802 2.68871 6.15614 0.900843 5.18421 0.108903Z" fill="url(#paint0_linear)"/>
</g>
<defs>
<linearGradient id="paint0_linear" x1="6.00015" y1="0" x2="6.00015" y2="12" gradientUnits="userSpaceOnUse">
<stop stop-color="#FF8888"/>
<stop offset="1" stop-color="#E95252"/>
</linearGradient>
<clipPath id="clip0">
<rect width="12" height="12" fill="white"/>
</clipPath>
</defs>
</svg>
