<svg width="38" height="38" viewBox="0 0 38 38" fill="none" xmlns="http://www.w3.org/2000/svg">
<path d="M15.8856 24.225H13.3522V15.9932H15.8856V24.225ZM14.6189 14.9372C13.7053 14.9372 13.2477 14.5144 13.2477 13.6705C13.2449 13.5011 13.2788 13.3332 13.3472 13.1782C13.4155 13.0232 13.5166 12.8849 13.6436 12.7728C13.9076 12.5264 14.258 12.3939 14.6189 12.4038C15.5325 12.4038 15.9901 12.8282 15.9901 13.6721C15.9901 14.516 15.5341 14.9372 14.6189 14.9372ZM25.2811 24.225H22.6955V19.6333C22.6955 18.4379 22.2712 17.8394 21.4272 17.8394C20.7591 17.8394 20.3205 18.1735 20.1068 18.8417C20.0387 18.9478 20.0023 19.1599 20.0023 19.475V24.225H17.4167V18.6311C17.4167 17.3644 17.3977 16.4857 17.3644 15.9932H19.5811L19.7394 17.1C20.3205 16.2197 21.1644 15.7811 22.325 15.7811C23.2069 15.7811 23.9178 16.0883 24.4625 16.7042C25.0103 17.3201 25.2827 18.2083 25.2827 19.3705V24.225H25.2811ZM19 33.25C11.1419 33.25 4.75 26.8581 4.75 19C4.75 11.1419 11.1419 4.75 19 4.75C26.8581 4.75 33.25 11.1419 33.25 19C33.25 26.8581 26.8581 33.25 19 33.25ZM19 7.91667C12.8899 7.91667 7.91667 12.8899 7.91667 19C7.91667 25.1101 12.8899 30.0833 19 30.0833C25.1101 30.0833 30.0833 25.1101 30.0833 19C30.0833 12.8899 25.1101 7.91667 19 7.91667Z" fill="white"/>
</svg>
