<svg width="60" height="60" viewBox="0 0 60 60" fill="none" xmlns="http://www.w3.org/2000/svg">
<path d="M5.45432 8.18182H21.818C23.6361 8.18182 24.5452 9.09091 24.5452 10.9091V27.2727C24.5452 29.0909 23.6361 30 21.818 30H5.45432C3.63614 30 2.72705 29.0909 2.72705 27.2727V10.9091C2.72705 9.09091 3.63614 8.18182 5.45432 8.18182Z" fill="#C8D9E9"/>
<path d="M5.45432 32.7272H21.818C23.6361 32.7272 24.5452 33.6363 24.5452 35.4545V51.8181C24.5452 53.6363 23.6361 54.5454 21.818 54.5454H5.45432C3.63614 54.5454 2.72705 53.6363 2.72705 51.8181V35.4545C2.72705 33.6363 3.63614 32.7272 5.45432 32.7272Z" fill="#C8D9E9"/>
<path d="M30.0002 32.7272H46.3639C48.182 32.7272 49.0911 33.6363 49.0911 35.4545V51.8181C49.0911 53.6363 48.182 54.5454 46.3639 54.5454H30.0002C28.182 54.5454 27.2729 53.6363 27.2729 51.8181V35.4545C27.2729 33.6363 28.182 32.7272 30.0002 32.7272Z" fill="#C8D9E9"/>
<path d="M43.7726 3.79912L55.3444 15.3709C55.8557 15.8824 56.1429 16.5759 56.1429 17.2991C56.1429 18.0223 55.8557 18.7159 55.3444 19.2273L43.7726 30.7991C43.2612 31.3104 42.5676 31.5976 41.8444 31.5976C41.1212 31.5976 40.4277 31.3104 39.9162 30.7991L28.3444 19.2273C27.8331 18.7159 27.5459 18.0223 27.5459 17.2991C27.5459 16.5759 27.8331 15.8824 28.3444 15.3709L39.9162 3.79912C40.4277 3.28783 41.1212 3.00061 41.8444 3.00061C42.5676 3.00061 43.2612 3.28783 43.7726 3.79912Z" fill="#C8D9E9"/>
</svg>
