<svg width="16" height="16" viewBox="0 0 16 16" fill="none" xmlns="http://www.w3.org/2000/svg">
<g opacity="0.3">
<path d="M14.3625 3.41566L15.5711 2.25434V2H11.3853L8.40213 9.46078L5.00889 2H0.619962V2.25434L2.03167 3.96181C2.16969 4.08799 2.24067 4.27333 2.22293 4.45867V11.1682C2.2663 11.4108 2.18941 11.6572 2.01984 11.8327L0.428711 13.7708V14.0212H4.93594V13.7669L3.34678 11.8347C3.26163 11.7482 3.19758 11.6433 3.15962 11.528C3.12166 11.4128 3.11081 11.2903 3.12792 11.1702V5.36563L7.08505 14.0252H7.54445L10.9475 5.36563V12.2645C10.9475 12.4459 10.9475 12.4833 10.8292 12.6036L9.60484 13.7925V14.0469H15.5435V13.7925L14.3625 12.6312C14.2599 12.5524 14.2067 12.4203 14.2284 12.2921V3.75478C14.2182 3.69142 14.2253 3.62648 14.2488 3.5668C14.2724 3.50712 14.3117 3.4549 14.3625 3.41566Z" fill="#343437"/>
</g>
</svg>
