<svg width="17" height="17" viewBox="0 0 17 17" fill="none" xmlns="http://www.w3.org/2000/svg">
<g opacity="0.8">
<path d="M4.17969 13.1665C4.60635 11.6998 5.40635 11.1665 6.32635 11.1665H10.673C11.593 11.1665 12.393 11.6998 12.8197 13.1665" stroke="black" stroke-linecap="round" stroke-linejoin="round"/>
<path d="M8.5 9.1665C9.60457 9.1665 10.5 8.27107 10.5 7.1665C10.5 6.06193 9.60457 5.1665 8.5 5.1665C7.39543 5.1665 6.5 6.06193 6.5 7.1665C6.5 8.27107 7.39543 9.1665 8.5 9.1665Z" stroke="black" stroke-linecap="round" stroke-linejoin="round"/>
<path d="M8.49967 15.1668C12.1816 15.1668 15.1663 12.1821 15.1663 8.50016C15.1663 4.81826 12.1816 1.8335 8.49967 1.8335C4.81778 1.8335 1.83301 4.81826 1.83301 8.50016C1.83301 12.1821 4.81778 15.1668 8.49967 15.1668Z" stroke="black" stroke-linecap="round" stroke-linejoin="round"/>
</g>
</svg>
