<svg width="24" height="24" viewBox="0 0 24 24" fill="none" xmlns="http://www.w3.org/2000/svg">
<g opacity="0.3">
<path d="M21.34 15.5702C20.5256 17.6983 19.0088 19.4845 17.0408 20.633C15.0727 21.7815 12.7715 22.2234 10.5181 21.8856C8.26463 21.5478 6.19412 20.4506 4.64935 18.7755C3.10457 17.1005 2.17818 14.9481 2.02355 12.6747C1.86892 10.4014 2.49532 8.14335 3.79904 6.27455C5.10277 4.40575 7.00563 3.03823 9.19257 2.39841C11.3795 1.75859 13.7194 1.88484 15.8248 2.75626C17.9302 3.62767 19.6749 5.19199 20.77 7.19022" stroke="#343437" stroke-width="1.5" stroke-linecap="round" stroke-linejoin="round"/>
<path d="M21.5 7.5V3.20711C21.5 2.76165 20.9614 2.53857 20.6464 2.85355L16.3536 7.14645C16.0386 7.46143 16.2617 8 16.7071 8H21C21.2761 8 21.5 7.77614 21.5 7.5Z" fill="#343437"/>
</g>
</svg>
