<svg width="16" height="16" viewBox="0 0 16 16" fill="none" xmlns="http://www.w3.org/2000/svg">
<path fill-rule="evenodd" clip-rule="evenodd" d="M9.1152 0.9252L14.4288 6.2892C15.7428 7.6032 16.0848 8.6256 14.7708 9.8928L10.188 14.5728C8.8704 15.8904 7.5564 15.8904 6.2388 14.5728L0.9252 9.2124C0.316597 8.6038 0.292586 7.50028 0.291639 7.5003C0.2916 7.5003 0.2916 7.50216 0.2916 7.506L0 0.9756C0 0.4392 0.4392 0 0.9756 0L7.8984 0.342C8.3844 0.3888 8.7732 0.5832 9.1152 0.9252ZM4.53149 5.88037C5.35992 5.88037 6.03149 5.2088 6.03149 4.38037C6.03149 3.55194 5.35992 2.88037 4.53149 2.88037C3.70307 2.88037 3.03149 3.55194 3.03149 4.38037C3.03149 5.2088 3.70307 5.88037 4.53149 5.88037Z" fill="white"/>
</svg>
