<svg width="16" height="16" viewBox="0 0 16 16" fill="none" xmlns="http://www.w3.org/2000/svg">
<g opacity="0.3">
<path d="M15.2591 4.30012L14.0748 1.97905C13.9376 1.71009 13.7288 1.48428 13.4713 1.32658C13.2139 1.16888 12.9178 1.08543 12.6159 1.08545H3.38388C3.08195 1.08543 2.7859 1.16888 2.52844 1.32658C2.27097 1.48428 2.06211 1.71009 1.92494 1.97905L0.740676 4.30012C0.083343 5.80705 1.05641 7.58785 2.69508 7.72092C3.14466 7.75822 3.59607 7.67538 4.00311 7.48088C4.41016 7.28638 4.7582 6.98721 5.01161 6.61398C5.06024 6.54188 5.12583 6.48282 5.20261 6.44199C5.2794 6.40116 5.36504 6.3798 5.45201 6.3798C5.53898 6.3798 5.62462 6.40116 5.70141 6.44199C5.77819 6.48282 5.84378 6.54188 5.89241 6.61398C6.35081 7.28732 7.12361 7.72945 7.99988 7.72945C8.87614 7.72945 9.64868 7.28732 10.1073 6.61398C10.156 6.54188 10.2216 6.48282 10.2983 6.44199C10.3751 6.40116 10.4608 6.3798 10.5477 6.3798C10.6347 6.3798 10.7204 6.40116 10.7971 6.44199C10.8739 6.48282 10.9395 6.54188 10.9881 6.61398C11.2416 6.98721 11.5896 7.28638 11.9966 7.48088C12.4037 7.67538 12.8551 7.75822 13.3047 7.72092C14.9433 7.58785 15.9164 5.80705 15.2591 4.30012ZM13.5412 8.76812C13.3934 8.78636 13.2446 8.79562 13.0956 8.79585C12.2953 8.79611 11.5175 8.53057 10.8844 8.04092C10.7883 7.96562 10.6697 7.9247 10.5476 7.9247C10.4255 7.9247 10.3069 7.96562 10.2108 8.04092C9.57776 8.53044 8.80012 8.79597 7.99988 8.79585C7.19953 8.79611 6.42176 8.53057 5.78868 8.04092C5.69256 7.96562 5.57398 7.9247 5.45188 7.9247C5.32977 7.9247 5.21119 7.96562 5.11508 8.04092C4.36162 8.62349 3.40862 8.88503 2.46334 8.76865C2.38859 8.75922 2.31269 8.76582 2.2407 8.78801C2.1687 8.81021 2.10225 8.84749 2.04579 8.89737C1.98932 8.94725 1.94413 9.00858 1.91323 9.07729C1.88232 9.146 1.8664 9.22051 1.86654 9.29585V13.8337C1.86654 14.4308 2.33774 14.9148 2.91908 14.9148H13.0809C13.6623 14.9148 14.1335 14.4308 14.1335 13.8337V9.29745C14.1332 8.97932 13.8564 8.72758 13.5412 8.76812ZM11.3281 12.7948H4.67134C4.37801 12.7948 4.13801 12.5548 4.13801 12.2614C4.13801 11.9681 4.37801 11.7281 4.67134 11.7281H11.3281C11.6215 11.7281 11.8615 11.9681 11.8615 12.2614C11.8615 12.5548 11.6215 12.7948 11.3281 12.7948Z" fill="#343437"/>
</g>
</svg>
