<svg width="20" height="20" viewBox="0 0 20 20" fill="none" xmlns="http://www.w3.org/2000/svg">
<g clip-path="url(#clip0)">
<mask id="mask0" mask-type="alpha" maskUnits="userSpaceOnUse" x="0" y="2" width="14" height="13">
<path fill-rule="evenodd" clip-rule="evenodd" d="M13.0752 6.26747C11.7056 6.5267 10.2511 7.0879 8.918 8.01726C6.21388 9.90239 4.75828 12.7801 4.62834 14.8443C2.0839 13.9214 0.266113 11.4828 0.266113 8.61959C0.266113 4.96369 3.2298 2 6.8857 2C9.71321 2 12.1267 3.77277 13.0752 6.26747Z" fill="#C4C4C4"/>
</mask>
<g mask="url(#mask0)">
<circle cx="2.61289" cy="8.19248" r="7.03391" stroke="white" stroke-width="0.879632"/>
<path d="M13.9173 0.50582C13.9173 3.97784 11.4778 6.68559 8.59162 6.68559C5.70545 6.68559 3.26599 3.97784 3.26599 0.50582C3.26599 -2.9662 5.70545 -5.67395 8.59162 -5.67395C11.4778 -5.67395 13.9173 -2.9662 13.9173 0.50582Z" stroke="white" stroke-width="0.879632"/>
<path d="M12.4712 19.8724C9.81514 22.1085 6.17262 21.9862 4.31382 19.7783C2.45501 17.5704 2.95533 13.9603 5.6114 11.7242C8.26747 9.48812 11.91 9.6104 13.7688 11.8183C15.6276 14.0262 15.1273 17.6363 12.4712 19.8724Z" stroke="white" stroke-width="0.879632"/>
<path d="M17.7611 14.5986C17.7611 16.236 16.7764 17.7701 15.0781 18.9146C13.3825 20.0573 11.015 20.7784 8.37828 20.7784C5.74152 20.7784 3.37408 20.0573 1.67843 18.9146C-0.0198593 17.7701 -1.00452 16.236 -1.00452 14.5986C-1.00452 12.9612 -0.0198593 11.4271 1.67843 10.2826C3.37408 9.13985 5.74152 8.41882 8.37828 8.41882C11.015 8.41882 13.3825 9.13985 15.0781 10.2826C16.7764 11.4271 17.7611 12.9612 17.7611 14.5986Z" stroke="white" stroke-width="0.879632"/>
</g>
<path fill-rule="evenodd" clip-rule="evenodd" d="M12.2089 6.46957C11.358 4.36469 9.29506 2.87963 6.88521 2.87963C3.71512 2.87963 1.14526 5.4495 1.14526 8.61959C1.14526 11.0375 2.64027 13.1062 4.75635 13.9518C4.68861 14.2616 4.64571 14.5606 4.62785 14.8443C2.08341 13.9214 0.265625 11.4828 0.265625 8.61959C0.265625 4.96369 3.22932 2 6.88521 2C9.71272 2 12.1262 3.77277 13.0747 6.26747C12.7892 6.32151 12.5 6.38868 12.2089 6.46957Z" fill="white"/>
<path d="M18.6722 8.46682C18.8908 8.78047 19.0168 9.26587 18.9969 9.9016C18.9773 10.5314 18.8151 11.2717 18.5016 12.0536C17.8747 13.6174 16.6622 15.2993 14.8881 16.5361C13.1139 17.7729 11.1164 18.3288 9.43231 18.3761C8.59029 18.3997 7.83953 18.2959 7.24185 18.0965C6.6385 17.8952 6.22662 17.6091 6.00796 17.2955C5.7893 16.9818 5.66338 16.4964 5.68321 15.8607C5.70284 15.2309 5.86509 14.4906 6.17853 13.7087C6.80544 12.1449 8.01791 10.463 9.79209 9.2262C11.5663 7.98936 13.5637 7.43349 15.2478 7.3862C16.0899 7.36256 16.8406 7.4664 17.4383 7.66581C18.0416 7.86711 18.4535 8.15316 18.6722 8.46682Z" stroke="white" stroke-width="0.879632"/>
<mask id="mask1" mask-type="alpha" maskUnits="userSpaceOnUse" x="2" y="4" width="20" height="18">
<path d="M18.6741 8.46633C18.8928 8.77998 19.0187 9.26538 18.9989 9.90112C18.9793 10.5309 18.817 11.2712 18.5036 12.0531C17.8767 13.6169 16.6642 15.2988 14.89 16.5356C13.1158 17.7724 11.1184 18.3283 9.43426 18.3756C8.59225 18.3992 7.84149 18.2954 7.2438 18.096C6.64045 17.8947 6.22857 17.6086 6.00992 17.295C5.79126 16.9813 5.66533 16.4959 5.68516 15.8602C5.7048 15.2304 5.86704 14.4901 6.18048 13.7082C6.8074 12.1444 8.01986 10.4625 9.79404 9.22571C11.5682 7.98887 13.5657 7.433 15.2498 7.38571C16.0918 7.36207 16.8426 7.46592 17.4403 7.66533C18.0436 7.86663 18.4555 8.15268 18.6741 8.46633Z" fill="white" stroke="white" stroke-width="0.879632"/>
</mask>
<g mask="url(#mask1)">
<path d="M13.9331 6.91064L18.6309 12.0355" stroke="white" stroke-width="0.879632"/>
<path d="M5.81836 13.5308L10.5161 18.6556" stroke="white" stroke-width="0.879632"/>
<path d="M14.7874 10.9683C13.7909 11.9648 11.3709 14.1713 9.6626 15.0254" stroke="white" stroke-width="0.879632"/>
<path d="M12.8657 10.7549L15.0011 13.1038" stroke="white" stroke-width="0.879632"/>
<path d="M11.3701 11.8228L13.5055 14.1716" stroke="white" stroke-width="0.879632"/>
<path d="M10.0889 13.104L12.2242 15.4529" stroke="white" stroke-width="0.879632"/>
</g>
</g>
<defs>
<clipPath id="clip0">
<rect width="20" height="20" fill="white"/>
</clipPath>
</defs>
</svg>
