<svg width="16" height="16" viewBox="0 0 16 16" fill="none" xmlns="http://www.w3.org/2000/svg">
<path d="M7.64936 0.638704C7.80125 0.362028 8.19875 0.362029 8.35064 0.638704L10.5672 4.67637C10.6247 4.78102 10.7259 4.85454 10.8432 4.87684L15.3682 5.73725C15.6783 5.79621 15.8011 6.17425 15.5849 6.4042L12.4298 9.76003C12.348 9.84701 12.3094 9.96596 12.3244 10.0844L12.9044 14.6538C12.9442 14.9669 12.6226 15.2006 12.3371 15.066L8.17053 13.1024C8.06254 13.0515 7.93746 13.0515 7.82947 13.1024L3.66292 15.066C3.37741 15.2006 3.05583 14.9669 3.09557 14.6538L3.67558 10.0844C3.69062 9.96596 3.65197 9.84701 3.57019 9.76003L0.41511 6.4042C0.198913 6.17425 0.321745 5.79621 0.631816 5.73725L5.15684 4.87684C5.27412 4.85454 5.37531 4.78102 5.43276 4.67637L7.64936 0.638704Z" fill="white"/>
</svg>
