<svg width="16" height="16" viewBox="0 0 16 16" fill="none" xmlns="http://www.w3.org/2000/svg">
<g opacity="0.3" clip-path="url(#clip0)">
<path d="M14.9105 1.5028L0.66822 6.9935C-0.303719 7.38361 -0.298717 7.92626 0.491504 8.168L4.14669 9.30915L12.6074 3.97432C13.0075 3.73175 13.3734 3.86179 13.0725 4.12936L6.21644 10.3128L6.28729 10.4361L6.21644 10.3128L5.96637 14.0822C6.10957 14.0803 6.25049 14.0461 6.37855 13.982C6.5066 13.9179 6.61847 13.8256 6.70574 13.712L8.48124 11.9857L12.1781 14.7132C12.8583 15.0874 13.3493 14.8932 13.5185 14.0813L15.9442 2.65145C16.1942 1.65617 15.5641 1.20521 14.9139 1.50029" fill="#343437"/>
</g>
<defs>
<clipPath id="clip0">
<rect width="16" height="16" fill="white"/>
</clipPath>
</defs>
</svg>
