<svg width="17" height="17" viewBox="0 0 17 17" fill="none" xmlns="http://www.w3.org/2000/svg">
<g opacity="0.8">
<path d="M6.1875 2.3125H2.75C2.3703 2.3125 2.0625 2.6203 2.0625 3V6.4375C2.0625 6.8172 2.3703 7.125 2.75 7.125H6.1875C6.5672 7.125 6.875 6.8172 6.875 6.4375V3C6.875 2.6203 6.5672 2.3125 6.1875 2.3125Z" stroke="black" stroke-linecap="round" stroke-linejoin="round"/>
<path d="M13.75 2.3125H10.3125C9.9328 2.3125 9.625 2.6203 9.625 3V6.4375C9.625 6.8172 9.9328 7.125 10.3125 7.125H13.75C14.1297 7.125 14.4375 6.8172 14.4375 6.4375V3C14.4375 2.6203 14.1297 2.3125 13.75 2.3125Z" stroke="black" stroke-linecap="round" stroke-linejoin="round"/>
<path d="M13.75 9.875H10.3125C9.9328 9.875 9.625 10.1828 9.625 10.5625V14C9.625 14.3797 9.9328 14.6875 10.3125 14.6875H13.75C14.1297 14.6875 14.4375 14.3797 14.4375 14V10.5625C14.4375 10.1828 14.1297 9.875 13.75 9.875Z" stroke="black" stroke-linecap="round" stroke-linejoin="round"/>
<path d="M6.1875 9.875H2.75C2.3703 9.875 2.0625 10.1828 2.0625 10.5625V14C2.0625 14.3797 2.3703 14.6875 2.75 14.6875H6.1875C6.5672 14.6875 6.875 14.3797 6.875 14V10.5625C6.875 10.1828 6.5672 9.875 6.1875 9.875Z" stroke="black" stroke-linecap="round" stroke-linejoin="round"/>
</g>
</svg>
