<svg width="20" height="20" viewBox="0 0 20 20" fill="none" xmlns="http://www.w3.org/2000/svg">
<path fill-rule="evenodd" clip-rule="evenodd" d="M6.52789 2.00264H15.2906C15.8167 2.00264 16.2432 2.42911 16.2432 2.95518V15.223C16.2432 15.6201 16.0002 15.9604 15.6549 16.1034V16.9377C16.448 16.77 17.0432 16.066 17.0432 15.223V2.95518C17.0432 1.98728 16.2585 1.20264 15.2906 1.20264H6.52789C5.68527 1.20264 4.98154 1.7973 4.81348 2.58984H5.64792C5.79122 2.24507 6.13124 2.00264 6.52789 2.00264Z" fill="white"/>
<rect x="2.98496" y="3.79355" width="11.4678" height="14.9729" rx="1.35255" stroke="white" stroke-width="0.8"/>
<rect x="4.77588" y="5.58398" width="7.88647" height="7.88647" rx="0.438137" fill="white" fill-opacity="0.5"/>
<rect x="4.77588" y="15.2231" width="5.69578" height="1.75255" rx="0.876274" fill="white" fill-opacity="0.5"/>
<rect x="10.9092" y="15.2231" width="1.75255" height="1.75255" rx="0.876274" fill="white" fill-opacity="0.5"/>
</svg>
