<svg width="38" height="38" viewBox="0 0 38 38" fill="none" xmlns="http://www.w3.org/2000/svg">
<path d="M19 33.25C11.1419 33.25 4.75 26.8581 4.75 19C4.75 11.1419 11.1419 4.75 19 4.75C26.8581 4.75 33.25 11.1419 33.25 19C33.25 26.8581 26.8581 33.25 19 33.25ZM19 7.91667C12.8899 7.91667 7.91667 12.8899 7.91667 19C7.91667 25.1101 12.8899 30.0833 19 30.0833C25.1101 30.0833 30.0833 25.1101 30.0833 19C30.0833 12.8899 25.1101 7.91667 19 7.91667Z" fill="white"/>
<path d="M25.3334 14.976C24.8676 15.1822 24.3607 15.3305 23.8386 15.3883C24.3807 15.0579 24.7866 14.536 24.9803 13.9205C24.4716 14.2309 23.9143 14.4485 23.3332 14.5638C23.0903 14.2975 22.7965 14.0853 22.4702 13.9405C22.1439 13.7957 21.792 13.7214 21.4364 13.7222C19.9979 13.7222 18.841 14.9183 18.841 16.386C18.841 16.5922 18.8654 16.7983 18.9049 16.9966C16.751 16.881 14.8299 15.8255 13.5527 14.2094C13.32 14.6171 13.198 15.0813 13.1995 15.5538C13.1995 16.4782 13.6577 17.2933 14.3564 17.7726C13.9447 17.756 13.5426 17.6399 13.1828 17.4338V17.4666C13.1828 18.761 14.0748 19.8338 15.2637 20.0805C15.0405 20.14 14.8109 20.1704 14.5802 20.1711C14.4112 20.1711 14.2514 20.1539 14.0901 20.1305C14.4189 21.186 15.3764 21.9527 16.5165 21.9777C15.6245 22.6944 14.5072 23.116 13.2939 23.116C13.0762 23.116 12.8753 23.1082 12.6667 23.0832C13.8176 23.8405 15.183 24.2777 16.6535 24.2777C21.4273 24.2777 24.0395 20.221 24.0395 16.6999C24.0395 16.5844 24.0395 16.4688 24.0319 16.3533C24.5373 15.9738 24.9803 15.5038 25.3334 14.976Z" fill="white"/>
</svg>
