<svg width="24" height="24" viewBox="0 0 24 24" fill="none" xmlns="http://www.w3.org/2000/svg">
<path d="M13.3404 16.2218C13.1491 16.0993 12.9198 16.0504 12.6951 16.0842C12.4705 16.1181 12.2657 16.2324 12.119 16.4058L8.05237 21.0232C7.43066 21.7207 6.56245 22.1495 5.63072 22.2194C4.69899 22.2893 3.77652 21.9948 3.05771 21.3978C2.69939 21.083 2.40705 20.7003 2.19761 20.2717C1.98816 19.8432 1.86576 19.3774 1.83749 18.9013C1.80922 18.4251 1.87564 17.9481 2.03291 17.4978C2.19017 17.0475 2.43516 16.6329 2.75371 16.2778L6.76304 11.7365C6.84473 11.6437 6.9058 11.5346 6.94223 11.4164C6.97866 11.2982 6.98961 11.1736 6.97436 11.0509C6.95912 10.9282 6.91802 10.8101 6.85378 10.7044C6.78955 10.5987 6.70363 10.5079 6.60171 10.4378C6.41028 10.3149 6.18069 10.2658 5.95573 10.2997C5.73077 10.3335 5.5258 10.448 5.37904 10.6218L1.31504 15.2378C0.855868 15.7608 0.505049 16.3696 0.282916 17.0291C0.0607833 17.6886 -0.0282449 18.3856 0.0209918 19.0797C0.0702285 19.7739 0.256751 20.4514 0.569747 21.0729C0.882744 21.6944 1.31599 22.2477 1.84437 22.7005C2.9215 23.6215 4.31712 24.0829 5.73095 23.9854C7.14479 23.8879 8.46387 23.2393 9.40437 22.1792L13.495 17.5205C13.5771 17.4281 13.6386 17.3194 13.6755 17.2014C13.7125 17.0835 13.724 16.9591 13.7094 16.8364C13.6948 16.7137 13.6544 16.5955 13.5908 16.4896C13.5271 16.3837 13.4418 16.2924 13.3404 16.2218ZM23.1764 2.60451C22.8273 1.99755 22.3587 1.46777 21.7989 1.04729C21.239 0.626801 20.5996 0.324365 19.9195 0.158308C19.2393 -0.0077492 18.5324 -0.0339708 17.8418 0.0812325C17.1512 0.196436 16.4912 0.450665 15.9017 0.828513L10.6977 4.20718C10.2844 4.48718 10.1644 5.04185 10.423 5.46851C10.4813 5.56954 10.5594 5.65771 10.6527 5.7277C10.746 5.79768 10.8525 5.84803 10.9657 5.8757C11.079 5.90337 11.1967 5.90778 11.3118 5.88867C11.4268 5.86956 11.5368 5.82732 11.635 5.76451L16.839 2.38585C17.2316 2.13361 17.6713 1.96372 18.1315 1.88646C18.5917 1.8092 19.0628 1.82619 19.5162 1.9364C19.9696 2.04661 20.3959 2.24774 20.7693 2.5276C21.1427 2.80746 21.4554 3.16023 21.6884 3.56451C22.185 4.38652 22.3479 5.36753 22.1435 6.30591C21.9392 7.24429 21.3831 8.06876 20.5897 8.60985L15.3697 11.9885C14.9564 12.2685 14.8364 12.8232 15.0964 13.2485C15.1545 13.3495 15.2325 13.4376 15.3256 13.5076C15.4187 13.5776 15.5251 13.628 15.6382 13.6558C15.7513 13.6836 15.8689 13.6882 15.9839 13.6693C16.0988 13.6504 16.2088 13.6084 16.307 13.5458L21.5124 10.1672C22.7039 9.35821 23.5403 8.12362 23.8498 6.71708C24.1593 5.31054 23.9183 3.83889 23.1764 2.60451ZM8.06971 15.2045C8.26168 15.3492 8.5001 15.4185 8.73974 15.3991C8.97937 15.3796 9.20354 15.2729 9.36971 15.0992L16.019 8.44851C16.1128 8.35483 16.1858 8.24251 16.2333 8.11882C16.2809 7.99514 16.302 7.86285 16.2952 7.7305C16.2884 7.59816 16.2539 7.46872 16.1939 7.35055C16.134 7.23238 16.0499 7.12812 15.947 7.04451C15.755 6.8994 15.5163 6.82995 15.2763 6.84937C15.0364 6.8688 14.8119 6.97573 14.6457 7.14985L7.99904 13.7992C7.90524 13.8928 7.83213 14.005 7.78445 14.1287C7.73677 14.2523 7.71557 14.3845 7.72224 14.5169C7.7289 14.6492 7.76327 14.7787 7.82312 14.8969C7.88298 15.0151 7.96698 15.1195 8.06971 15.2032V15.2045ZM0.676373 10.0925C0.691842 10.1508 0.721169 10.2046 0.76186 10.2491C0.802552 10.2937 0.853404 10.3278 0.91009 10.3484C0.966776 10.3691 1.02762 10.3758 1.08745 10.3679C1.14727 10.36 1.20431 10.3378 1.25371 10.3032L4.70171 8.46585C4.74666 8.4397 4.78172 8.39944 4.80143 8.35132C4.82115 8.3032 4.82442 8.24992 4.81074 8.19975C4.79706 8.14958 4.76719 8.10533 4.72577 8.07388C4.68435 8.04244 4.63371 8.02555 4.58171 8.02585L0.72304 7.83385C0.658981 7.82883 0.594708 7.84037 0.536397 7.86736C0.478085 7.89435 0.427696 7.93589 0.39007 7.98798C0.352444 8.04006 0.328846 8.10095 0.321544 8.16479C0.314242 8.22863 0.323481 8.29327 0.348374 8.35251L0.677707 10.0925H0.676373ZM0.82304 4.00451L5.43104 5.70051C5.47987 5.71764 5.53297 5.71824 5.58218 5.70223C5.63138 5.68622 5.67396 5.65448 5.70336 5.61189C5.73276 5.56931 5.74734 5.51825 5.74488 5.46656C5.74241 5.41488 5.72303 5.36544 5.68971 5.32585L2.50304 1.64585C2.46712 1.59347 2.41847 1.55108 2.36167 1.52266C2.30487 1.49425 2.24178 1.48074 2.17832 1.48341C2.11487 1.48607 2.05313 1.50483 1.99891 1.53791C1.94469 1.57099 1.89977 1.61731 1.86837 1.67251L0.621707 3.41651C0.58469 3.46565 0.560296 3.52312 0.550665 3.58389C0.541033 3.64465 0.546459 3.70685 0.566466 3.76502C0.586473 3.8232 0.620449 3.87558 0.665415 3.91757C0.710381 3.95956 0.764963 3.98987 0.824373 4.00585L0.82304 4.00451ZM7.62837 4.63518C7.64334 4.68324 7.67327 4.72526 7.71381 4.7551C7.75435 4.78494 7.80337 4.80103 7.85371 4.80103C7.90404 4.80103 7.95306 4.78494 7.9936 4.7551C8.03414 4.72526 8.06408 4.68324 8.07904 4.63518L9.40704 0.881846C9.42828 0.826883 9.4363 0.767698 9.43046 0.709065C9.42463 0.650431 9.40509 0.593991 9.37343 0.544295C9.34177 0.4946 9.29887 0.453041 9.2482 0.42297C9.19753 0.3929 9.1405 0.375159 9.08171 0.37118L7.45237 0.24318C7.38859 0.231484 7.32286 0.236544 7.26161 0.257865C7.20037 0.279187 7.14571 0.316039 7.10298 0.364818C7.06025 0.413597 7.03091 0.472631 7.01783 0.536148C7.00475 0.599665 7.00839 0.665488 7.02837 0.72718L7.62837 4.63385V4.63518Z" fill="#FF6A61"/>
</svg>
