<svg width="20" height="20" viewBox="0 0 20 20" fill="none" xmlns="http://www.w3.org/2000/svg">
<g clip-path="url(#clip0)">
<path d="M19.2821 10.6658C18.5021 15.1352 14.6021 18.5328 9.90952 18.5328C5.21695 18.5328 1.31696 15.1352 0.53691 10.6658C0.431644 10.0627 0.935852 9.48565 1.66329 9.48565H18.1558C18.8832 9.48565 19.3874 10.0627 19.2821 10.6658Z" stroke="white" stroke-width="0.935163"/>
<circle cx="4.48319" cy="4.02664" r="2.3535" stroke="white" stroke-width="0.935163"/>
<path d="M7.95557 7.71575L10.5596 1.20557L12.7297 7.71575H7.95557Z" stroke="white" stroke-width="0.935163"/>
<path d="M13.8169 7.71561L15.7108 3.37549L17.289 7.71561H13.8169Z" stroke="white" stroke-width="0.935163"/>
<path d="M10.5605 7.49902V9.01807" stroke="white" stroke-width="0.935163"/>
<path d="M15.5522 7.71631V9.23535" stroke="white" stroke-width="0.935163"/>
<mask id="mask0" mask-type="alpha" maskUnits="userSpaceOnUse" x="0" y="9" width="20" height="11">
<path d="M9.90952 19.0003C14.8332 19.0003 18.9243 15.4356 19.7428 10.7462C19.9076 9.80169 19.1145 9.01807 18.1558 9.01807H1.66329C0.704501 9.01807 -0.0885551 9.80169 0.0762916 10.7462C0.894735 15.4356 4.98584 19.0003 9.90952 19.0003Z" fill="#C4C4C4"/>
</mask>
<g mask="url(#mask0)">
<path d="M6.22202 12.9243C8.65249 12.5771 8.46442 10.3926 7.95807 9.45222V8.36719L-0.722168 8.58419L1.01388 15.0944C6.22202 15.9624 6.72837 13.7923 6.22202 12.9243Z" fill="white" fill-opacity="0.5"/>
<path d="M15.7683 12.0562C17.0705 10.971 19.2404 11.7668 19.8914 12.0562C19.6744 13.6475 18.5894 17.0906 15.9853 18.1323C12.7302 19.4343 7.29293 14.1418 11.2111 14.4432C16.8535 14.8772 14.5897 13.0383 15.7683 12.0562Z" fill="white" fill-opacity="0.5"/>
</g>
</g>
<defs>
<clipPath id="clip0">
<rect width="20" height="20" fill="white"/>
</clipPath>
</defs>
</svg>
