<svg width="38" height="38" viewBox="0 0 38 38" fill="none" xmlns="http://www.w3.org/2000/svg">
<path d="M19 33.25C11.1419 33.25 4.75 26.8581 4.75 19C4.75 11.1419 11.1419 4.75 19 4.75C26.8581 4.75 33.25 11.1419 33.25 19C33.25 26.8581 26.8581 33.25 19 33.25ZM19 7.91667C12.8899 7.91667 7.91667 12.8899 7.91667 19C7.91667 25.1101 12.8899 30.0833 19 30.0833C25.1101 30.0833 30.0833 25.1101 30.0833 19C30.0833 12.8899 25.1101 7.91667 19 7.91667Z" fill="white"/>
<path d="M21.5189 17.0813C21.6023 17.0813 21.6857 17.0843 21.7677 17.0888C21.4227 15.1809 19.5296 13.7222 17.2448 13.7222C14.7168 13.7222 12.6667 15.51 12.6667 17.7158C12.6667 18.9181 13.2832 20.0017 14.2488 20.734C14.2887 20.7635 14.3212 20.8026 14.3435 20.848C14.3659 20.8934 14.3776 20.9438 14.3775 20.995C14.3775 21.0305 14.3704 21.0631 14.362 21.0972C14.2842 21.3982 14.1612 21.88 14.1555 21.9022C14.1456 21.9407 14.1315 21.9793 14.1315 22.0193C14.1315 22.1068 14.1994 22.1794 14.2842 22.1794C14.3167 22.1794 14.3436 22.1661 14.3718 22.1498L15.3743 21.5435C15.4492 21.4975 15.5298 21.4693 15.6174 21.4693C15.6627 21.4693 15.7079 21.4767 15.7518 21.4901C16.2197 21.6309 16.7245 21.7095 17.2462 21.7095C17.331 21.7095 17.4145 21.708 17.4979 21.7036C17.3975 21.3922 17.3438 21.0646 17.3438 20.7252C17.3438 18.712 19.2129 17.0813 21.5189 17.0813ZM18.7717 15.799C19.1082 15.799 19.3825 16.0852 19.3825 16.438C19.3825 16.7908 19.1097 17.0769 18.7717 17.0769C18.4352 17.0769 18.161 16.7908 18.161 16.438C18.161 16.0852 18.4352 15.799 18.7717 15.799ZM15.7192 17.0769C15.3828 17.0769 15.1085 16.7908 15.1085 16.438C15.1085 16.0852 15.3813 15.799 15.7192 15.799C16.0572 15.799 16.33 16.0852 16.33 16.438C16.33 16.7908 16.0557 17.0769 15.7192 17.0769ZM24.0157 23.2379C24.8202 22.6271 25.3334 21.7258 25.3334 20.7222C25.3334 18.884 23.6255 17.3941 21.5174 17.3941C19.4108 17.3941 17.7015 18.884 17.7015 20.7222C17.7015 22.5604 19.4094 24.0502 21.5174 24.0502C21.9529 24.0502 22.3742 23.985 22.763 23.8679C22.7998 23.856 22.8366 23.8501 22.8747 23.8501C22.9483 23.8501 23.0147 23.8738 23.0769 23.9109L23.9125 24.4149C23.9365 24.4297 23.9592 24.4401 23.986 24.4401C24.0028 24.4403 24.0194 24.4369 24.0349 24.4303C24.0505 24.4237 24.0646 24.4139 24.0765 24.4016C24.0883 24.3891 24.0976 24.3743 24.1039 24.358C24.1102 24.3417 24.1134 24.3243 24.1133 24.3067C24.1133 24.2741 24.1005 24.2415 24.0935 24.2089C24.0892 24.1911 23.986 23.7893 23.921 23.5373C23.9139 23.5092 23.9083 23.481 23.9083 23.4528C23.9097 23.3654 23.9521 23.2868 24.0157 23.2379ZM20.2478 20.1915C19.9664 20.1915 19.7388 19.9528 19.7388 19.6593C19.7388 19.3658 19.9664 19.1271 20.2478 19.1271C20.5292 19.1271 20.7568 19.3658 20.7568 19.6593C20.7568 19.9528 20.5277 20.1915 20.2478 20.1915ZM22.7913 20.1915C22.51 20.1915 22.2823 19.9528 22.2823 19.6593C22.2823 19.3658 22.51 19.1271 22.7913 19.1271C23.0727 19.1271 23.3003 19.3658 23.3003 19.6593C23.2996 19.8005 23.2457 19.9357 23.1504 20.0354C23.055 20.135 22.926 20.1912 22.7913 20.1915Z" fill="white"/>
</svg>
